<?xml version="1.0" encoding="UTF-8"?>
<!-- Generator: Gravit.io -->
<svg width="48" height="48" style="isolation:isolate" version="1.1" viewBox="0 0 48 48" xmlns="http://www.w3.org/2000/svg">
 <rect width="48" height="48" fill-opacity="0"/>
 <path d="m4 0h40c2.208 0 4 1.792 4 4v40c0 2.208-1.792 4-4 4h-40c-2.208 0-4-1.792-4-4v-40c0-2.208 1.792-4 4-4z" fill="#282923"/>
 <path d="m19 27v-12c0-1.104-0.896-2-2-2h-4v17c0 2.76 2.24 5 5 5h17v-4c0-1.104-0.896-2-2-2h-12c-1.104 0-2-0.896-2-2z" fill="#e1e1e6"/>
 <path d="m25.283 21.813v-7.49c0-0.68908-0.54788-1.2483-1.2229-1.2483h-2.4459v10.611c0 1.7227 1.3697 3.1208 3.0574 3.1208h10.395v-2.4967c0-0.68908-0.54788-1.2483-1.2229-1.2483h-7.3377c-0.67506 0-1.2229-0.55925-1.2229-1.2483z" fill="#ffa92d" style="isolation:isolate"/>
</svg>
